<svg width="16" height="16" viewBox="0 0 16 16" fill="none" xmlns="http://www.w3.org/2000/svg">
<path d="M3.625 1.875H12.375C13.332 1.875 14.125 2.66797 14.125 3.625V12.375C14.125 13.3594 13.332 14.125 12.375 14.125H3.625C2.64062 14.125 1.875 13.3594 1.875 12.375V3.625C1.875 2.66797 2.64062 1.875 3.625 1.875ZM6.90625 10.1875C6.52344 10.1875 6.25 10.4883 6.25 10.8438C6.25 11.2266 6.52344 11.5 6.90625 11.5H9.09375C9.44922 11.5 9.75 11.2266 9.75 10.8438C9.75 10.4883 9.44922 10.1875 9.09375 10.1875H8.875V7.78125C8.875 7.42578 8.57422 7.125 8.21875 7.125H6.90625C6.52344 7.125 6.25 7.42578 6.25 7.78125C6.25 8.16406 6.52344 8.4375 6.90625 8.4375H7.5625V10.1875H6.90625ZM8 4.5C7.50781 4.5 7.125 4.91016 7.125 5.375C7.125 5.86719 7.50781 6.25 8 6.25C8.46484 6.25 8.875 5.86719 8.875 5.375C8.875 4.91016 8.46484 4.5 8 4.5Z" fill="#60626D"/>
</svg>
