<svg width="40" height="40" viewBox="0 0 40 40" fill="none" xmlns="http://www.w3.org/2000/svg">
<rect x="2" y="2" width="36" height="36" rx="18" fill="#2E2E2E"/>
<rect x="2" y="2" width="36" height="36" rx="18" stroke="#212121" stroke-width="4"/>
<path d="M27.5312 23.7812L24.5312 26.7812C24.2188 27.0938 23.75 27.0938 23.4688 26.7812L20.4688 23.7812C20.1562 23.5 20.1562 23.0312 20.4688 22.75C20.75 22.4375 21.2188 22.4375 21.5312 22.75L23.25 24.4688V13.75C23.25 13.3438 23.5625 13 24 13C24.4062 13 24.75 13.3438 24.75 13.75V24.4688L26.4688 22.75C26.75 22.4375 27.2188 22.4375 27.5312 22.75C27.8125 23.0312 27.8125 23.5 27.5312 23.7812ZM16.5312 13.2188L19.5 16.2188C19.8125 16.5312 19.8125 17 19.5 17.2812C19.2188 17.5938 18.75 17.5938 18.4375 17.2812L16.7188 15.5625V26.25C16.7188 26.6875 16.4062 27 15.9688 27C15.5625 27 15.2188 26.6875 15.2188 26.25V15.5625L13.5 17.2812C13.2188 17.5938 12.75 17.5938 12.4688 17.2812C12.1562 17 12.1562 16.5312 12.4688 16.2188L15.4688 13.2188C15.75 12.9375 16.2188 12.9375 16.5312 13.2188Z" fill="#757985"/>
</svg>
