<svg width="14" height="14" viewBox="0 0 14 14" fill="none" xmlns="http://www.w3.org/2000/svg">
<path d="M13.5352 4.56641C13.6445 4.8125 13.5625 5.05859 13.3711 5.25L12.1953 6.31641C12.2227 6.53516 12.2227 6.78125 12.2227 7C12.2227 7.24609 12.2227 7.49219 12.1953 7.71094L13.3711 8.77734C13.5625 8.94141 13.6445 9.21484 13.5352 9.46094C13.4258 9.78906 13.2891 10.0898 13.125 10.3906L12.9883 10.6094C12.7969 10.9102 12.6055 11.2109 12.3867 11.457C12.2227 11.6758 11.9492 11.7305 11.7031 11.6484L10.1992 11.1836C9.81641 11.457 9.40625 11.6758 8.99609 11.8672L8.64062 13.4258C8.58594 13.6719 8.39453 13.8633 8.14844 13.918C7.76562 13.9727 7.38281 14 6.97266 14C6.58984 14 6.20703 13.9727 5.82422 13.918C5.57812 13.8633 5.38672 13.6719 5.33203 13.4258L4.97656 11.8672C4.53906 11.6758 4.15625 11.457 3.77344 11.1836L2.26953 11.6484C2.02344 11.7305 1.75 11.6758 1.58594 11.4844C1.36719 11.2109 1.17578 10.9102 0.984375 10.6094L0.847656 10.3906C0.683594 10.0898 0.546875 9.78906 0.4375 9.46094C0.328125 9.21484 0.410156 8.96875 0.601562 8.77734L1.77734 7.71094C1.75 7.49219 1.75 7.24609 1.75 7C1.75 6.78125 1.75 6.53516 1.77734 6.31641L0.601562 5.25C0.410156 5.05859 0.328125 4.8125 0.4375 4.56641C0.546875 4.23828 0.683594 3.9375 0.847656 3.63672L0.984375 3.41797C1.17578 3.11719 1.36719 2.81641 1.58594 2.54297C1.75 2.35156 2.02344 2.29688 2.26953 2.37891L3.77344 2.84375C4.15625 2.57031 4.56641 2.32422 4.97656 2.16016L5.33203 0.601562C5.38672 0.355469 5.57812 0.164062 5.82422 0.109375C6.20703 0.0546875 6.58984 0 7 0C7.38281 0 7.76562 0.0546875 8.14844 0.109375C8.39453 0.136719 8.58594 0.355469 8.64062 0.601562L8.99609 2.16016C9.43359 2.32422 9.81641 2.57031 10.1992 2.84375L11.7031 2.37891C11.9492 2.29688 12.2227 2.35156 12.3867 2.54297C12.6055 2.81641 12.7969 3.11719 12.9883 3.41797L13.125 3.63672C13.2891 3.9375 13.4258 4.23828 13.5625 4.56641H13.5352ZM7 9.1875C7.76562 9.1875 8.47656 8.77734 8.88672 8.09375C9.26953 7.4375 9.26953 6.58984 8.88672 5.90625C8.47656 5.25 7.76562 4.8125 7 4.8125C6.20703 4.8125 5.49609 5.25 5.08594 5.90625C4.70312 6.58984 4.70312 7.4375 5.08594 8.09375C5.49609 8.77734 6.20703 9.1875 7 9.1875Z" fill="#CDD0DB"/>
</svg>
