<svg width="16" height="16" viewBox="0 0 16 16" fill="none" xmlns="http://www.w3.org/2000/svg">
<path d="M2.75 1.875H13.25C13.7148 1.875 14.125 2.28516 14.125 2.75C14.125 3.24219 13.7148 3.625 13.25 3.625H3.1875C2.94141 3.625 2.75 3.84375 2.75 4.0625C2.75 4.30859 2.94141 4.5 3.1875 4.5H13.25C14.207 4.5 15 5.29297 15 6.25V12.375C15 13.3594 14.207 14.125 13.25 14.125H2.75C1.76562 14.125 1 13.3594 1 12.375V3.625C1 2.66797 1.76562 1.875 2.75 1.875ZM12.375 8.4375C11.8828 8.4375 11.5 8.84766 11.5 9.3125C11.5 9.80469 11.8828 10.1875 12.375 10.1875C12.8398 10.1875 13.25 9.80469 13.25 9.3125C13.25 8.84766 12.8398 8.4375 12.375 8.4375Z" fill="#9195A3"/>
</svg>
